<svg width="122" height="122" xmlns="http://www.w3.org/2000/svg" xmlns:xlink="http://www.w3.org/1999/xlink" overflow="hidden"><defs><clipPath id="clip0"><rect x="579" y="299" width="122" height="122"/></clipPath></defs><g clip-path="url(#clip0)" transform="translate(-579 -299)"><path d="M701 360C701 393.689 673.689 421 640 421 606.311 421 579 393.689 579 360 579 326.311 606.311 299 640 299 673.689 299 701 326.311 701 360Z" fill="#FFFFFF"/><path d="M700.5 360C700.5 393.413 673.413 420.5 640 420.5 606.587 420.5 579.5 393.413 579.5 360 579.5 326.587 606.587 299.5 640 299.5 673.413 299.5 700.5 326.587 700.5 360Z" stroke="#707070" fill="none"/><path d="M640 360C649.332 360 656.965 352.622 656.965 343.606 656.965 334.59 649.331 327.211 640 327.211 630.669 327.211 623.035 334.589 623.035 343.605 623.035 352.621 630.67 360 640 360ZM640 368.2C628.761 368.197 606.07 373.73 606.07 384.591L606.07 392.791 673.929 392.791 673.929 384.591C673.929 373.73 651.239 368.197 640 368.197Z" fill="#006A7A"/></g></svg>